<?xml version="1.0" standalone="no"?>
<!DOCTYPE svg PUBLIC "-//W3C//DTD SVG 20010904//EN"
 "http://www.w3.org/TR/2001/REC-SVG-20010904/DTD/svg10.dtd">
<svg version="1.0" xmlns="http://www.w3.org/2000/svg"
 width="800.000000pt" height="920.000000pt" viewBox="0 0 800.000000 920.000000"
 preserveAspectRatio="xMidYMid meet">

<g transform="translate(0.000000,920.000000) scale(0.100000,-0.100000)"
fill="#000000" stroke="none">
<path d="M5249 4746 c-5 -22 -14 -56 -19 -75 -5 -19 -7 -37 -5 -39 6 -6 149
-40 153 -37 2 1 11 37 21 79 l18 76 -36 9 c-20 5 -55 13 -78 19 l-43 10 -11
-42z"/>
<path d="M2396 4612 l-79 -66 45 -21 c39 -17 44 -23 37 -40 -14 -35 -10 -55
10 -55 14 0 21 9 26 31 6 26 11 30 28 25 68 -19 70 -19 65 -5 -3 8 -12 56 -19
107 -7 51 -18 92 -23 91 -6 0 -47 -30 -90 -67z"/>
<path d="M5380 4558 c0 -23 53 -118 66 -118 21 0 17 25 -11 80 -23 45 -55 68
-55 38z"/>
<path d="M5470 4368 c0 -7 10 -36 22 -65 20 -50 39 -65 53 -44 9 16 -42 121
-59 121 -9 0 -16 -6 -16 -12z"/>
<path d="M2366 4351 c-12 -19 -18 -118 -8 -125 15 -9 30 22 38 82 5 44 4 52
-9 52 -9 0 -18 -4 -21 -9z"/>
<path d="M5546 4182 c-10 -17 31 -127 49 -131 15 -2 17 2 12 31 -11 72 -45
126 -61 100z"/>
<path d="M2337 4154 c-4 -4 -7 -36 -7 -71 0 -57 2 -63 20 -63 19 0 21 5 18 67
-3 61 -14 84 -31 67z"/>
<path d="M5605 3981 c-7 -13 12 -122 23 -133 5 -5 14 -3 20 4 8 10 7 30 -1 72
-11 57 -28 79 -42 57z"/>
<path d="M2345 3940 c-8 -13 22 -117 36 -126 23 -14 27 13 12 74 -14 58 -32
77 -48 52z"/>
<path d="M5637 3774 c-4 -4 -7 -36 -7 -71 0 -57 2 -63 20 -63 19 0 21 5 18 67
-3 61 -14 84 -31 67z"/>
<path d="M2420 3742 c0 -20 65 -102 81 -102 26 0 18 33 -18 74 -40 48 -63 58
-63 28z"/>
<path d="M2570 3602 c0 -22 90 -68 115 -58 23 9 11 23 -45 51 -59 30 -70 31
-70 7z"/>
<path d="M5616 3546 c-4 -15 -14 -26 -29 -28 -38 -5 -27 -33 16 -36 40 -3 44
1 49 53 4 38 -27 48 -36 11z"/>
<path d="M2763 3532 c-8 -19 11 -29 69 -37 93 -13 92 24 -1 41 -53 9 -64 9
-68 -4z"/>
<path d="M2965 3510 c-13 -21 8 -30 71 -30 57 0 64 2 64 20 0 18 -7 20 -64 20
-36 0 -68 -4 -71 -10z"/>
<path d="M3165 3510 c-13 -21 8 -30 71 -30 57 0 64 2 64 20 0 18 -7 20 -64 20
-36 0 -68 -4 -71 -10z"/>
<path d="M3365 3510 c-13 -21 12 -31 71 -28 44 2 59 7 59 18 0 19 -119 28
-130 10z"/>
<path d="M3565 3510 c-13 -21 12 -31 71 -28 44 2 59 7 59 18 0 19 -119 28
-130 10z"/>
<path d="M3765 3510 c-13 -21 12 -31 71 -28 44 2 59 7 59 18 0 19 -119 28
-130 10z"/>
<path d="M3965 3510 c-13 -21 12 -31 71 -28 44 2 59 7 59 18 0 19 -119 28
-130 10z"/>
<path d="M4165 3510 c-13 -21 12 -31 71 -28 44 2 59 7 59 18 0 19 -119 28
-130 10z"/>
<path d="M4365 3510 c-13 -21 12 -31 71 -28 44 2 59 7 59 18 0 19 -119 28
-130 10z"/>
<path d="M4565 3510 c-13 -21 12 -31 71 -28 44 2 59 7 59 18 0 19 -119 28
-130 10z"/>
<path d="M4765 3510 c-13 -21 12 -31 71 -28 44 2 59 7 59 18 0 19 -119 28
-130 10z"/>
<path d="M4965 3510 c-13 -21 12 -31 71 -28 44 2 59 7 59 18 0 19 -119 28
-130 10z"/>
<path d="M5165 3510 c-13 -21 12 -31 71 -28 44 2 59 7 59 18 0 19 -119 28
-130 10z"/>
<path d="M5365 3510 c-13 -21 12 -31 71 -28 44 2 59 7 59 18 0 19 -119 28
-130 10z"/>
<path d="M4022 2833 c4 -21 33 -25 33 -3 0 8 -8 16 -18 18 -14 3 -18 -1 -15
-15z"/>
</g>
</svg>
