<!DOCTYPE svg PUBLIC "-//W3C//DTD SVG 1.1//EN" "http://www.w3.org/Graphics/SVG/1.1/DTD/svg11.dtd">
<!-- Uploaded to: SVG Repo, www.svgrepo.com, Transformed by: SVG Repo Mixer Tools -->
<svg height="800px" width="800px" version="1.1" id="Layer_1" xmlns="http://www.w3.org/2000/svg" xmlns:xlink="http://www.w3.org/1999/xlink" viewBox="0 0 512 512" xml:space="preserve" fill="#d2cbcb" stroke="#d2cbcb">
<g id="SVGRepo_bgCarrier" stroke-width="0"/>
<g id="SVGRepo_tracerCarrier" stroke-linecap="round" stroke-linejoin="round"/>
<g id="SVGRepo_iconCarrier"> <path style="fill:#ffffff;" d="M215.7,116.531v278.937c0,36.816,42.009,57.855,71.49,35.803l194.187-145.254 c20.043-14.993,20.043-45.041,0-60.034L287.19,80.73C257.709,58.676,215.7,79.715,215.7,116.531z"/> <path style="fill:#ffffffFFC61B;" d="M490.717,213.5L296.529,68.246c-10.579-7.913-23.006-12.094-35.939-12.094 c-33.349,0-60.48,27.086-60.48,60.379v181.213c-88.289-2.02-160.445-70.536-168.238-157.309h84.259 c2.814,15.838,9.879,30.73,20.577,43.024c5.653,6.494,15.497,7.176,21.993,1.525c6.494-5.651,7.177-15.498,1.525-21.993 c-9.215-10.588-14.29-24.135-14.29-38.144c0-8.61-6.981-15.589-15.589-15.589H15.589C6.981,109.258,0,116.237,0,124.846 c0,111.212,89.404,201.924,200.111,204.07v66.552c0,33.288,27.129,60.376,60.478,60.379c0.003,0,0.003,0,0.006,0 c12.929,0,25.355-4.182,35.934-12.094L490.715,298.5C504.243,288.383,512,272.892,512,256S504.243,223.617,490.717,213.5z M472.041,273.534L277.854,418.788c-5.146,3.849-11.112,5.883-17.257,5.883c0,0-0.002,0-0.003,0 c-14.092-0.002-29.304-11.166-29.304-29.201V116.531c0-18.038,15.21-29.201,29.302-29.201c6.147,0,12.117,2.034,17.262,5.883 l194.189,145.254c5.579,4.173,8.781,10.565,8.781,17.534C480.824,262.971,477.622,269.361,472.041,273.534z"/> </g>
</svg>